<?xml version="1.0" encoding="UTF-8"?>
<svg xmlns="http://www.w3.org/2000/svg" xmlns:xlink="http://www.w3.org/1999/xlink" width="512pt" height="512pt" viewBox="0 0 512 512" version="1.1">
<g id="surface1">
<path style=" stroke:none;fill-rule:evenodd;fill:rgb(100%,100%,100%);fill-opacity:1;" d="M 257.351562 50 C 369.820312 50 460.96875 141.152344 460.96875 253.621094 C 460.96875 366.089844 369.820312 457.238281 257.351562 457.238281 C 223.074219 457.238281 189.609375 448.757812 159.554688 432.257812 L 145.429688 424.503906 L 69.507812 445.023438 L 90.207031 371.15625 L 81.597656 356.488281 C 63.238281 325.199219 53.730469 289.894531 53.730469 253.621094 C 53.730469 141.152344 144.882812 50 257.351562 50 Z M 140.308594 467.320312 C 175.042969 486.390625 214.929688 497.238281 257.351562 497.238281 C 391.898438 497.238281 500.96875 388.167969 500.96875 253.621094 C 500.96875 119.070312 391.898438 10 257.351562 10 C 122.800781 10 13.730469 119.070312 13.730469 253.621094 C 13.730469 298.535156 25.898438 340.605469 47.101562 376.734375 L 12 502 Z M 140.308594 467.320312 "/>
<path style=" stroke:none;fill-rule:evenodd;fill:rgb(16.862745%,69.411765%,25.098039%);fill-opacity:1;" d="M 460.96875 253.621094 C 460.96875 141.152344 369.820312 50 257.351562 50 C 144.882812 50 53.730469 141.152344 53.730469 253.621094 C 53.730469 289.894531 63.238281 325.199219 81.601562 356.488281 L 90.207031 371.15625 L 69.507812 445.023438 L 145.429688 424.503906 L 159.558594 432.257812 C 189.609375 448.757812 223.074219 457.238281 257.351562 457.238281 C 369.820312 457.238281 460.96875 366.089844 460.96875 253.621094 Z M 199.257812 243.234375 C 208.417969 259.101562 224.410156 276.933594 239.191406 288.378906 C 257.046875 302.203125 285.054688 320.367188 294.160156 312.3125 C 298.457031 308.511719 310.28125 291.378906 311.855469 290.15625 C 313.433594 288.929688 318.679688 280.167969 331.066406 286.171875 C 343.449219 292.179688 374.347656 307.507812 374.347656 307.507812 C 374.347656 307.507812 381.042969 310.210938 380.757812 320.703125 C 380.476562 331.191406 380.019531 333.878906 380.019531 333.878906 C 380.019531 333.878906 375.53125 369.851562 326.429688 371.285156 C 304.203125 371.933594 278.464844 362.871094 255.660156 351.238281 C 216.734375 331.390625 192.421875 309.453125 166.421875 275.332031 C 148.765625 252.164062 131.128906 221.722656 134.246094 194.664062 C 139.65625 147.714844 169.511719 143.386719 169.511719 143.386719 C 169.511719 143.386719 172.214844 143.0625 182.710938 143.277344 C 193.203125 143.492188 195.582031 150.308594 195.582031 150.308594 C 195.582031 150.308594 210.078125 183.414062 215.488281 196.070312 C 220.898438 208.726562 215.054688 214.242188 213.757812 215.757812 C 212.460938 217.273438 204.671875 226.46875 200.667969 230.578125 C 196.664062 234.6875 197.617188 240.386719 199.257812 243.234375 Z M 199.257812 243.234375 "/>
<path style=" stroke:none;fill-rule:evenodd;fill:rgb(100%,100%,100%);fill-opacity:1;" d="M 215.484375 196.066406 C 210.078125 183.410156 195.582031 150.308594 195.582031 150.308594 C 195.582031 150.308594 193.203125 143.492188 182.707031 143.277344 C 172.214844 143.0625 169.507812 143.386719 169.507812 143.386719 C 169.507812 143.386719 139.652344 147.714844 134.242188 194.664062 C 131.125 221.722656 148.761719 252.160156 166.417969 275.332031 C 192.421875 309.453125 216.734375 331.390625 255.65625 351.238281 C 278.464844 362.867188 304.203125 371.933594 326.429688 371.285156 C 375.53125 369.851562 380.019531 333.878906 380.019531 333.878906 C 380.019531 333.878906 380.472656 331.191406 380.757812 320.699219 C 381.042969 310.210938 374.347656 307.507812 374.347656 307.507812 C 374.347656 307.507812 343.449219 292.179688 331.0625 286.171875 C 318.679688 280.164062 313.429688 288.929688 311.855469 290.152344 C 310.28125 291.378906 298.453125 308.511719 294.15625 312.3125 C 285.054688 320.367188 257.042969 302.203125 239.1875 288.378906 C 224.410156 276.933594 208.417969 259.101562 199.257812 243.234375 C 197.613281 240.386719 196.660156 234.6875 200.664062 230.574219 C 204.667969 226.464844 212.457031 217.269531 213.753906 215.757812 C 215.054688 214.242188 220.894531 208.726562 215.484375 196.066406 Z M 215.484375 196.066406 "/>
<path style=" stroke:none;fill-rule:nonzero;fill:rgb(0%,0%,0%);fill-opacity:1;" d="M 436.6875 74.28125 C 388.785156 26.382812 325.09375 0 257.351562 0 C 204.070312 0 153.074219 16.34375 109.878906 47.269531 C 105.386719 50.484375 104.351562 56.730469 107.566406 61.222656 C 110.785156 65.714844 117.03125 66.746094 121.519531 63.53125 C 161.300781 35.054688 208.269531 20 257.351562 20 C 386.167969 20 490.96875 124.800781 490.96875 253.621094 C 490.96875 382.4375 386.167969 487.238281 257.351562 487.238281 C 218.109375 487.238281 179.300781 477.320312 145.121094 458.554688 C 142.851562 457.3125 140.191406 456.996094 137.699219 457.667969 L 26.378906 487.753906 L 56.730469 379.433594 C 57.464844 376.816406 57.101562 374.015625 55.726562 371.675781 C 34.792969 336.003906 23.730469 295.183594 23.730469 253.621094 C 23.730469 204.535156 38.785156 157.566406 67.261719 117.789062 C 70.476562 113.300781 69.441406 107.054688 64.953125 103.839844 C 60.460938 100.625 54.214844 101.65625 51 106.148438 C 20.074219 149.339844 3.730469 200.335938 3.730469 253.621094 C 3.730469 297.304688 14.992188 340.238281 36.339844 378.082031 L 2.371094 499.300781 C 1.398438 502.765625 2.367188 506.484375 4.894531 509.039062 C 6.800781 510.957031 9.367188 512 12 512 C 12.871094 512 13.746094 511.886719 14.609375 511.652344 L 139.074219 478.015625 C 175.3125 497.144531 216.117188 507.238281 257.347656 507.238281 C 325.09375 507.238281 388.785156 480.859375 436.683594 432.953125 C 484.585938 385.054688 510.96875 321.363281 510.96875 253.617188 C 510.96875 185.875 484.589844 122.1875 436.6875 74.28125 Z M 436.6875 74.28125 "/>
<path style=" stroke:none;fill-rule:nonzero;fill:rgb(0%,0%,0%);fill-opacity:1;" d="M 421.269531 374.839844 C 425.863281 377.90625 432.074219 376.667969 435.140625 372.074219 C 458.578125 336.957031 470.96875 295.996094 470.96875 253.617188 C 470.96875 196.554688 448.75 142.90625 408.40625 102.5625 C 368.0625 62.21875 314.417969 40 257.351562 40 C 200.285156 40 146.636719 62.21875 106.292969 102.5625 C 65.949219 142.90625 43.730469 196.554688 43.730469 253.621094 C 43.730469 291.628906 53.84375 328.949219 72.976562 361.550781 L 79.429688 372.550781 L 59.878906 442.324219 C 58.90625 445.785156 59.871094 449.503906 62.402344 452.058594 C 64.933594 454.613281 68.644531 455.613281 72.117188 454.675781 L 144.148438 435.207031 L 154.742188 441.023438 C 185.984375 458.175781 221.464844 467.238281 257.347656 467.238281 C 299.730469 467.238281 340.691406 454.847656 375.804688 431.40625 C 380.398438 428.34375 381.636719 422.132812 378.570312 417.539062 C 375.503906 412.945312 369.296875 411.707031 364.703125 414.773438 C 332.886719 436.011719 295.765625 447.238281 257.347656 447.238281 C 224.820312 447.238281 192.667969 439.027344 164.367188 423.492188 L 150.242188 415.734375 C 147.976562 414.492188 145.316406 414.175781 142.820312 414.847656 L 83.882812 430.777344 L 99.835938 373.851562 C 100.566406 371.234375 100.207031 368.433594 98.832031 366.09375 L 90.222656 351.425781 C 72.890625 321.890625 63.730469 288.070312 63.730469 253.617188 C 63.730469 146.855469 150.589844 60 257.351562 60 C 364.113281 60 450.96875 146.855469 450.96875 253.621094 C 450.96875 292.03125 439.742188 329.152344 418.503906 360.972656 C 415.4375 365.566406 416.675781 371.773438 421.269531 374.839844 Z M 421.269531 374.839844 "/>
<path style=" stroke:none;fill-rule:nonzero;fill:rgb(0%,0%,0%);fill-opacity:1;" d="M 220.804688 222.902344 L 221.464844 222.132812 C 230.421875 212.078125 228.160156 200.269531 224.683594 192.136719 C 219.546875 180.125 206.109375 149.421875 204.835938 146.515625 C 202.851562 141.5 196.230469 133.554688 182.914062 133.277344 C 172.53125 133.066406 169.117188 133.359375 168.320312 133.457031 C 168.238281 133.464844 168.15625 133.476562 168.078125 133.488281 C 166.546875 133.710938 130.53125 139.539062 124.3125 193.519531 C 121.453125 218.335938 132.945312 247.898438 158.46875 281.394531 C 186.726562 318.476562 212.703125 340.558594 251.117188 360.144531 C 270.246094 369.898438 298.1875 381.316406 324.199219 381.316406 C 325.042969 381.316406 325.886719 381.304688 326.722656 381.277344 C 355.9375 380.425781 371.539062 368.285156 379.480469 358.25 C 387.910156 347.597656 389.671875 337.101562 389.925781 335.28125 C 390.09375 334.125 390.5 330.476562 390.757812 320.972656 C 391.117188 307.65625 383.492188 300.664062 378.578125 298.441406 C 375.800781 297.0625 347.167969 282.867188 335.429688 277.175781 C 327.503906 273.328125 315.851562 271.132812 305.363281 282.511719 C 305.308594 282.570312 305.257812 282.628906 305.207031 282.679688 C 303.789062 283.917969 302.386719 285.765625 298.125 291.46875 C 295.5 294.980469 290.261719 301.988281 288.035156 304.328125 C 283.332031 304.660156 267.605469 297.734375 245.3125 280.472656 C 231.261719 269.589844 216.257812 252.648438 207.957031 238.296875 C 207.875 238.09375 207.824219 237.722656 207.847656 237.535156 C 211.289062 233.996094 216.890625 227.492188 220.804688 222.902344 Z M 233.066406 296.285156 C 239.730469 301.445312 252.796875 311.058594 265.429688 317.46875 C 271.402344 320.496094 289.578125 329.71875 300.785156 319.800781 C 303.878906 317.0625 308.273438 311.292969 314.140625 303.441406 C 315.832031 301.179688 317.910156 298.402344 318.714844 297.441406 C 319.238281 296.964844 319.671875 296.496094 320.066406 296.066406 C 321.867188 294.113281 322.6875 293.222656 326.699219 295.167969 C 338.746094 301.011719 368.800781 315.917969 369.878906 316.449219 C 370.25 316.820312 370.828125 318.027344 370.761719 320.429688 C 370.539062 328.71875 370.214844 331.714844 370.148438 332.277344 C 370.105469 332.484375 370.125 332.359375 370.101562 332.585938 C 369.984375 333.265625 368.726562 339.96875 363.214844 346.550781 C 355.441406 355.839844 342.96875 360.796875 326.140625 361.285156 C 303.640625 361.953125 277.871094 351.339844 260.199219 342.328125 C 224.246094 323.992188 200.984375 304.191406 174.371094 269.269531 C 152.402344 240.441406 141.960938 215.035156 144.175781 195.804688 C 148.347656 159.597656 168.191406 153.910156 170.851562 153.308594 C 171.789062 153.25 174.960938 153.117188 182.5 153.273438 C 184.902344 153.324219 186.078125 153.960938 186.433594 154.347656 C 186.929688 155.480469 201.027344 187.683594 206.289062 199.996094 C 208.917969 206.148438 207.304688 207.960938 206.527344 208.832031 C 206.386719 208.988281 206.265625 209.128906 206.160156 209.246094 L 205.585938 209.921875 C 199.808594 216.691406 195.742188 221.296875 193.5 223.597656 C 186.117188 231.183594 186.816406 241.683594 190.597656 248.230469 C 200.214844 264.894531 216.886719 283.753906 233.066406 296.285156 Z M 233.066406 296.285156 "/>
<path style=" stroke:none;fill-rule:nonzero;fill:rgb(0%,0%,0%);fill-opacity:1;" d="M 85.085938 91.351562 C 87.488281 91.351562 89.898438 90.492188 91.8125 88.75 C 95.898438 85.035156 96.203125 78.710938 92.488281 74.625 C 88.769531 70.539062 82.449219 70.238281 78.359375 73.953125 L 78.355469 73.957031 C 74.269531 77.671875 73.972656 83.992188 77.6875 88.082031 C 79.660156 90.25 82.367188 91.351562 85.085938 91.351562 Z M 85.085938 91.351562 "/>
<path style=" stroke:none;fill-rule:nonzero;fill:rgb(0%,0%,0%);fill-opacity:1;" d="M 393.933594 390.871094 L 393.929688 390.878906 C 390.214844 394.964844 390.519531 401.285156 394.605469 405 C 396.519531 406.742188 398.925781 407.601562 401.328125 407.601562 C 404.046875 407.601562 406.757812 406.496094 408.730469 404.324219 C 412.449219 400.238281 412.144531 393.914062 408.058594 390.199219 C 403.972656 386.484375 397.648438 386.785156 393.933594 390.871094 Z M 393.933594 390.871094 "/>
</g>
</svg>
